{"glyphs":{"0":{"ha":1100,"x_min":0,"x_max":0,"o":"m 397 40 l 339 134 l 489 239 l 650 339 l 628 113 z m 272 -273 l 938 -93 l 1042 428 l 654 951 l 274 951 l -4 749 l 5 80 z m 278 367 l 232 479 l 382 692 l 547 657 l 587 568 z "},"1":{"ha":986,"x_min":0,"x_max":0,"o":"m 378 -281 l 917 -283 l 783 1106 l 393 1103 l 0 772 l 133 467 l 417 611 z "},"2":{"ha":1381,"x_min":0,"x_max":0,"o":"m 113 -271 l 1300 -283 l 1275 92 l 521 0 l 1192 525 l 1013 896 l 433 1063 l 42 613 l 346 404 l 563 696 l 804 579 l 0 63 l 0 -71 z "},"3":{"ha":1381,"x_min":0,"x_max":0,"o":"m -1543 3874 z m 1258 -103 l 1058 -261 l 475 -261 l 133 -94 l 272 200 l 650 0 l 844 239 l 517 372 l 744 556 l 600 667 l 294 433 l 44 706 l 494 1056 l 1028 956 l 1189 578 l 1083 444 l 1283 289 z "},"4":{"ha":1401,"x_min":0,"x_max":0,"o":"m 433 417 l 721 721 l 638 388 z m 792 1108 l 769 950 l 492 1083 l 39 386 l 8 94 l 669 47 l 672 -267 l 1003 -258 l 1039 50 l 1267 51 l 1283 340 l 1050 364 l 1100 1038 z "},"5":{"ha":1351,"x_min":0,"x_max":0,"o":"m 1171 701 l 821 647 l 808 801 l 400 776 l 404 576 l 842 564 l 1238 435 l 1242 43 l 1046 -261 l 329 -286 l -21 -82 l 167 164 l 600 0 l 733 164 l 546 331 l 0 293 l 0 1101 l 1138 1101 z "},"6":{"ha":1389,"x_min":0,"x_max":0,"o":"m 511 272 l 444 144 l 500 44 l 789 61 l 828 217 l 728 300 z m 463 1118 l 892 1085 l 579 564 l 1025 643 l 1250 464 l 1246 31 l 850 -282 l 254 -282 l 0 0 l 0 376 z "},"7":{"ha":1331,"x_min":0,"x_max":0,"o":"m 10 1024 l 10 528 l 825 715 l 600 390 l 233 444 l 133 157 l 446 74 l 296 -243 l 683 -276 l 833 36 l 1117 19 l 1183 290 l 858 315 l 1242 765 l 1138 1086 z "},"8":{"ha":1022,"x_min":0,"x_max":0,"o":"m 636 720 l 578 811 l 454 808 l 388 688 l 448 602 l 558 600 z m 447 187 l 371 103 l 402 19 l 528 0 l 589 111 l 549 191 z m 722 -274 l 189 -257 l 22 -46 l 22 276 l 172 426 l 122 554 l 117 893 l 272 1060 l 722 1099 l 889 943 l 911 593 l 822 476 l 950 326 l 922 -79 z "},"9":{"ha":1339,"x_min":0,"x_max":0,"o":"m 766 515 l 828 667 l 749 810 l 494 778 l 394 611 l 529 476 z m 783 -301 l 356 -253 l 686 256 l 238 193 l 19 380 l 38 813 l 445 1111 l 1040 1091 l 1284 800 l 1271 424 z "}," ":{"ha":733,"x_min":0,"x_max":0,"o":""},"!":{"ha":385,"x_min":0,"x_max":0,"o":"m 0 225 l 0 1121 l 350 1100 l 288 242 z m 0 -279 l 0 79 l 313 96 l 342 -275 z "},"\"":{"ha":431,"x_min":0,"x_max":0,"o":"m 224 1214 l 390 1194 l 340 850 l 201 850 z m 0 1197 l 0 864 l 160 858 l 154 1208 z "},"#":{"ha":967,"x_min":0,"x_max":0,"o":"m 532 614 l 529 453 l 388 447 l 363 600 z m 0 808 l 21 561 l 163 575 l 151 428 l 0 417 l 0 192 l 196 211 l 224 0 l 418 0 l 410 239 l 535 239 l 554 0 l 785 0 l 788 256 l 926 272 l 896 475 l 765 469 l 765 661 l 865 669 l 843 886 l 729 878 l 743 1117 l 549 1108 l 521 856 l 376 839 l 357 1114 l 146 1117 l 138 831 z "},"$":{"ha":1290,"x_min":0,"x_max":0,"o":"m 908 -232 l 1211 54 l 1145 362 l 607 628 l 679 742 l 911 581 l 1215 857 l 928 1110 l 818 1109 l 829 1381 l 474 1314 l 493 1108 l 422 1108 l 113 928 l 58 529 l 569 235 l 500 154 l 200 329 l 0 0 l 444 -261 l 535 -255 l 490 -436 l 835 -453 l 818 -238 z "},"%":{"ha":1389,"x_min":0,"x_max":0,"o":"m 1164 93 l 1151 170 l 1090 200 l 1013 162 l 1005 82 l 1089 55 z m 832 72 l 858 231 l 1039 344 l 1233 321 l 1343 197 l 1371 51 l 1153 -93 l 937 -98 z m 151 806 l 174 731 l 238 708 l 310 756 l 307 836 l 221 853 z m 82 589 l 0 728 l 68 931 l 232 1036 l 396 1011 l 510 917 l 435 667 l 271 525 z m -21 53 l 1096 1164 l 1404 922 l 163 -283 z "},"&":{"ha":1244,"x_min":0,"x_max":0,"o":"m 400 275 l 239 169 l 250 31 l 372 0 l 533 92 z m 226 525 l 54 689 l 60 1056 l 246 1214 l 743 1244 l 839 953 l 489 919 l 393 783 l 483 653 l 782 781 l 896 550 l 611 358 l 700 192 l 967 381 l 1110 197 l 883 0 l 1149 -89 l 1129 -297 l 846 -297 l 704 -181 l 568 -267 l 174 -272 l 0 -128 l 0 381 z "},"'":{"ha":292,"x_min":0,"x_max":0,"o":"m 0 1200 l 38 819 l 207 819 l 274 1200 z "},"(":{"ha":856,"x_min":0,"x_max":0,"o":"m 0 1022 l -28 -250 l 139 -522 l 422 -622 l 761 -633 l 806 -200 l 383 -156 l 378 772 l 672 828 l 683 1283 l 444 1294 l 211 1189 z "},")":{"ha":822,"x_min":0,"x_max":0,"o":"m 0 1278 l 411 1306 l 667 1167 l 772 889 l 672 -483 l 572 -567 l 378 -644 l 0 -644 l 0 -244 l 261 -156 l 333 800 l 0 844 z "},"*":{"ha":381,"x_min":0,"x_max":0,"o":"m 35 1114 l 113 1081 l 121 1181 l 293 1153 l 249 1053 l 354 1028 l 335 886 l 263 903 l 307 822 l 133 775 l 122 825 l 69 792 l -6 883 l 64 967 l 0 972 z "},"+":{"ha":525,"x_min":0,"x_max":0,"o":"m 0 631 l 124 639 l 126 814 l 279 811 l 299 633 l 426 647 l 465 456 l 332 444 l 379 311 l 143 283 l 151 433 l -15 433 z "},",":{"ha":385,"x_min":0,"x_max":0,"o":"m 0 -279 l 0 117 l 308 100 l 342 -275 l 138 -496 l 142 -277 z "},"-":{"ha":900,"x_min":0,"x_max":0,"o":"m 33 546 l 844 557 l 861 229 l 0 218 z "},".":{"ha":385,"x_min":0,"x_max":0,"o":"m 0 -279 l 0 79 l 313 96 l 342 -275 z "},"/":{"ha":1039,"x_min":0,"x_max":0,"o":"m 0 -211 l 767 1228 l 994 1067 l 261 -411 z "},":":{"ha":385,"x_min":0,"x_max":0,"o":"m 0 371 l 0 675 l 354 629 l 308 363 z m 0 -279 l 0 79 l 313 96 l 342 -275 z "},";":{"ha":385,"x_min":0,"x_max":0,"o":"m 0 629 l 33 408 l 296 433 l 313 696 z m 0 -279 l 0 117 l 308 100 l 342 -275 l 138 -496 l 142 -277 z "},"<":{"ha":1389,"x_min":0,"x_max":0,"o":"m 1122 1128 l 11 461 l 11 172 l 1167 -356 l 1289 67 l 561 344 l 1361 817 z "},"=":{"ha":1050,"x_min":0,"x_max":0,"o":"m 22 250 l 969 272 l 1006 28 l -17 19 z m 0 581 l 39 342 l 1006 389 l 997 631 z "},">":{"ha":1389,"x_min":0,"x_max":0,"o":"m 0 789 l 767 378 l 0 44 l 61 -333 l 1267 139 l 1356 639 l 183 1172 z "},"?":{"ha":1001,"x_min":0,"x_max":0,"o":"m 367 121 l 383 521 l 650 688 l 608 833 l 388 767 l 200 588 l 0 846 l 246 1100 l 733 1092 l 958 971 l 938 538 l 663 388 l 654 138 z m 350 -283 l 358 21 l 671 38 l 725 -283 z "},"@":{"ha":1589,"x_min":0,"x_max":0,"o":"m 938 221 l 808 321 l 625 179 l 713 33 l 908 75 z m 829 510 l 867 593 l 1067 554 l 1129 150 l 1196 190 l 1133 638 l 675 754 l 317 521 l 329 -121 l 531 -344 l 1422 -336 l 1436 -628 l 296 -558 l 0 -150 l -8 467 l 183 908 l 746 1088 l 1233 1050 l 1471 788 l 1504 58 l 1421 -256 l 1096 -175 l 1050 -108 l 942 -183 l 600 -204 l 404 -46 l 388 346 l 617 564 z "},"A":{"ha":1606,"x_min":0,"x_max":0,"o":"m 849 718 l 927 372 l 683 462 z m 0 125 l 442 -50 l 605 123 l 976 -11 l 994 -195 l 1528 -195 l 1098 1019 l 682 1111 z "},"B":{"ha":1144,"x_min":0,"x_max":0,"o":"m 450 0 l 438 293 l 696 221 l 700 88 z m 442 471 l 418 767 l 625 646 l 625 546 z m 1071 -79 l 1063 225 l 888 383 l 1004 571 l 933 925 l 696 1113 l 4 1111 l 0 -215 l 813 -267 z "},"C":{"ha":1264,"x_min":0,"x_max":0,"o":"m 952 500 l 1152 800 l 824 966 l 433 966 l 103 720 l 5 193 l 290 -200 l 851 -225 l 1195 -1 l 1018 325 l 788 175 l 515 183 l 404 425 l 685 625 z "},"D":{"ha":1044,"x_min":0,"x_max":0,"o":"m 322 115 l 331 624 l 614 457 l 611 215 z m 963 -44 l 881 861 l 533 1085 l 4 1044 l 0 -282 l 667 -265 z "},"E":{"ha":1264,"x_min":0,"x_max":0,"o":"m 270 -219 l 1168 -60 l 1005 253 l 627 123 l 579 271 l 873 292 l 867 548 l 566 525 l 581 647 l 839 643 l 948 1031 l 1 913 l 0 318 z "},"F":{"ha":1058,"x_min":0,"x_max":0,"o":"m 711 -169 l 270 -219 l 1 913 l 948 1031 l 839 643 l 545 635 l 561 514 l 910 504 l 880 284 l 544 297 z "},"G":{"ha":1274,"x_min":0,"x_max":0,"o":"m 39 728 l 0 285 l 100 -35 l 471 -268 l 725 -132 l 750 -415 l 1150 -290 l 1033 68 l 1192 152 l 1172 529 l 848 414 l 775 221 l 550 143 l 350 376 l 583 643 l 792 526 l 1100 843 l 677 1111 l 213 949 z "},"H":{"ha":1389,"x_min":0,"x_max":0,"o":"m 94 -232 l 0 1118 l 411 1118 l 483 696 l 794 613 l 806 1096 l 1250 1096 l 1283 -199 l 844 -271 l 789 168 l 483 218 l 522 -271 z "},"I":{"ha":675,"x_min":0,"x_max":0,"o":"m 0 -276 l 539 -278 l 405 1111 l 15 1109 z "},"J":{"ha":1335,"x_min":0,"x_max":0,"o":"m 767 -251 l 958 0 l 829 753 l 1133 765 l 1106 1124 l 0 1167 l 0 753 l 438 753 l 521 103 l 379 90 l 171 257 l 0 -25 l 233 -271 z "},"K":{"ha":1389,"x_min":0,"x_max":0,"o":"m 0 -276 l 539 -278 l 477 364 l 939 -272 l 1342 -19 l 889 464 l 1153 933 l 708 969 l 460 547 l 405 1111 l 15 1109 z "},"L":{"ha":1054,"x_min":0,"x_max":0,"o":"m 500 133 l 911 226 l 1021 -279 l 0 -276 l 15 1109 l 405 1111 z "},"M":{"ha":1611,"x_min":0,"x_max":0,"o":"m 0 -274 l 518 -272 l 511 289 l 708 56 l 914 419 l 1086 186 l 1036 -258 l 1569 0 l 1188 994 l 788 1111 l 664 833 l 598 1101 l 243 1099 z "},"N":{"ha":1556,"x_min":0,"x_max":0,"o":"m 1317 -200 l 1406 950 l 1028 1050 l 922 311 l 598 1101 l 243 1099 l 0 -274 l 518 -272 l 533 478 l 983 -267 z "},"O":{"ha":1356,"x_min":0,"x_max":0,"o":"m 332 -273 l 1143 -93 l 1285 580 l 797 951 l 334 951 l -5 749 l 6 80 z m 484 203 l 397 394 l 557 542 l 765 371 l 689 240 z "},"P":{"ha":1044,"x_min":0,"x_max":0,"o":"m 419 406 l 418 767 l 614 599 z m 433 113 l 742 175 l 961 401 l 881 928 l 508 1168 l 4 1111 l 0 -215 l 424 -199 z "},"Q":{"ha":1356,"x_min":0,"x_max":0,"o":"m 332 -273 l 546 -226 l 521 -354 l 1167 -421 l 1225 -183 l 988 -128 l 1143 -93 l 1285 580 l 797 951 l 334 951 l -5 749 l 6 80 z m 484 203 l 397 394 l 557 542 l 765 371 l 689 240 z "},"R":{"ha":1149,"x_min":0,"x_max":0,"o":"m 419 406 l 418 767 l 614 599 z m 424 -199 l 430 23 l 727 -278 l 1100 25 l 774 274 l 961 401 l 955 889 l 496 1111 l 4 1111 l 0 -215 z "},"S":{"ha":1290,"x_min":0,"x_max":0,"o":"m 908 -232 l 1211 54 l 1145 362 l 559 627 l 682 732 l 911 581 l 1215 857 l 928 1110 l 422 1108 l 167 885 l 58 529 l 569 235 l 500 154 l 200 329 l 0 0 l 444 -261 z "},"T":{"ha":1294,"x_min":0,"x_max":0,"o":"m 0 1106 l 1144 1122 l 1139 722 l 650 744 l 850 -244 l 372 -278 l 322 772 l 0 822 z "},"U":{"ha":1164,"x_min":0,"x_max":0,"o":"m 261 -278 l 853 -183 l 1053 103 l 1022 1089 l 594 997 l 611 378 l 453 292 l 483 1111 l 0 1109 l 11 76 z "},"V":{"ha":1164,"x_min":0,"x_max":0,"o":"m 504 244 l 617 1002 l 1022 1089 l 738 -247 l 296 -235 l 0 1109 l 483 1111 z "},"W":{"ha":1597,"x_min":0,"x_max":0,"o":"m 742 547 l 950 381 l 1142 1064 l 1525 989 l 1358 -186 l 892 -253 l 782 -36 l 675 -236 l 350 -261 l 0 956 l 458 1106 l 525 481 l 633 281 z "},"X":{"ha":1426,"x_min":0,"x_max":0,"o":"m -25 0 l 342 429 l 0 742 l 338 1104 l 667 667 l 925 1113 l 1367 854 l 996 458 l 1389 0 l 904 -267 l 675 100 l 329 -271 l 0 0 z "},"Y":{"ha":1426,"x_min":0,"x_max":0,"o":"m 379 -271 l 446 275 l 0 742 l 338 1104 l 667 667 l 925 1113 l 1367 854 l 858 300 l 879 -287 z "},"Z":{"ha":1035,"x_min":0,"x_max":0,"o":"m 944 660 l 925 1076 l 20 1068 l 0 624 l 491 646 l 39 235 l 126 -190 l 888 -262 l 943 174 l 472 160 z "},"[":{"ha":689,"x_min":0,"x_max":0,"o":"m 0 -675 l 0 1200 l 583 1233 l 625 867 l 379 846 l 400 -225 l 625 -246 l 658 -667 z "},"\\":{"ha":833,"x_min":0,"x_max":0,"o":"m 0 1017 l 506 -428 l 772 -294 l 272 1111 z "},"]":{"ha":839,"x_min":0,"x_max":0,"o":"m 42 1208 l 42 900 l 383 883 l 367 -203 l 19 -208 l 0 -639 l 761 -667 l 714 1206 z "},"^":{"ha":678,"x_min":0,"x_max":0,"o":"m 0 778 l 246 1194 l 426 1200 l 604 742 l 390 689 l 293 956 l 115 706 z "},"_":{"ha":958,"x_min":0,"x_max":0,"o":"m -18 -272 l 943 -269 l 874 -467 l -26 -478 z "},"`":{"ha":381,"x_min":0,"x_max":0,"o":"m -29 1217 l 76 1256 l 268 1025 l 38 953 z "},"a":{"ha":1606,"x_min":0,"x_max":0,"o":"m 863 696 l 950 346 l 804 350 z m 204 -221 l 733 -229 l 733 -21 l 1017 0 l 1042 -221 l 1528 -195 l 1098 1019 l 633 996 z "},"b":{"ha":1150,"x_min":0,"x_max":0,"o":"m 433 47 l 438 293 l 650 258 l 700 88 z m 411 486 l 418 767 l 625 646 l 606 514 z m 1071 -79 l 1044 275 l 888 383 l 989 497 l 933 925 l 696 1113 l 4 1111 l 0 -264 l 813 -267 z "},"c":{"ha":1232,"x_min":0,"x_max":0,"o":"m 954 243 l 1161 -57 l 835 -223 l 445 -223 l 110 23 l 1 550 l 277 943 l 838 968 l 1187 744 l 1016 418 l 783 568 l 510 560 l 404 318 l 689 118 z "},"d":{"ha":1044,"x_min":0,"x_max":0,"o":"m 346 58 l 338 713 l 592 556 l 600 181 z m 938 -99 l 975 831 l 571 1063 l 0 1056 l -4 -271 l 663 -254 z "},"e":{"ha":1264,"x_min":0,"x_max":0,"o":"m 270 -219 l 1168 -60 l 1005 253 l 627 123 l 579 271 l 873 292 l 867 548 l 566 525 l 581 647 l 839 643 l 948 1031 l 1 913 z "},"f":{"ha":1058,"x_min":0,"x_max":0,"o":"m 711 -169 l 270 -219 l 1 913 l 948 1031 l 839 643 l 581 647 l 566 525 l 867 548 l 873 292 l 579 271 z "},"g":{"ha":1274,"x_min":0,"x_max":0,"o":"m 92 722 l 0 360 l 158 -107 l 483 -199 l 742 -140 l 875 -399 l 1217 -282 l 1092 68 l 1274 185 l 1175 485 l 848 414 l 775 221 l 583 143 l 400 301 l 525 593 l 792 526 l 1100 843 l 725 1093 l 267 943 z "},"h":{"ha":1389,"x_min":0,"x_max":0,"o":"m 44 -276 l 0 1118 l 411 1118 l 489 640 l 800 679 l 806 1096 l 1250 1096 l 1294 -260 l 839 -221 l 794 235 l 489 163 l 517 -221 z "},"i":{"ha":692,"x_min":0,"x_max":0,"o":"m 533 -272 l -6 -274 l 128 1114 l 518 1112 z "},"j":{"ha":1224,"x_min":0,"x_max":0,"o":"m 801 -269 l 913 -81 l 751 722 l 1121 669 l 1106 1124 l 0 1044 l 32 614 l 363 699 l 496 119 l 388 49 l 194 172 l 0 -89 l 367 -283 z "},"k":{"ha":1317,"x_min":0,"x_max":0,"o":"m 0 -276 l 539 -278 l 438 368 l 900 -268 l 1279 -85 l 821 428 l 1200 840 l 796 982 l 460 547 l 405 1111 l 15 1109 z "},"l":{"ha":1083,"x_min":0,"x_max":0,"o":"m 500 133 l 989 249 l 1021 -279 l 0 -276 l 15 1109 l 405 1111 z "},"m":{"ha":1572,"x_min":0,"x_max":0,"o":"m 0 -274 l 515 -272 l 533 300 l 700 58 l 925 367 l 1092 67 l 1061 -254 l 1521 -43 l 1182 994 l 842 1117 l 683 775 l 595 1101 l 242 1099 z "},"n":{"ha":1500,"x_min":0,"x_max":0,"o":"m 1317 -156 l 1394 917 l 1028 1050 l 950 422 l 598 1101 l 217 1067 l 0 -274 l 518 -272 l 583 417 l 1056 -272 z "},"o":{"ha":1363,"x_min":0,"x_max":0,"o":"m 308 -179 l 1070 -140 l 1294 651 l 907 998 l 371 1049 l 23 753 l 5 121 z m 563 590 l 747 480 l 704 255 l 433 272 l 418 432 z "},"p":{"ha":949,"x_min":0,"x_max":0,"o":"m 4 -278 l 388 -276 l 388 -17 l 637 -15 l 875 339 l 834 943 l 530 1109 l 0 1111 z m 372 690 l 581 651 l 526 441 l 386 415 z "},"q":{"ha":1363,"x_min":0,"x_max":0,"o":"m 308 -179 l 508 -167 l 471 -367 l 1046 -458 l 1133 -224 l 950 -146 l 1070 -140 l 1294 651 l 907 998 l 371 1049 l 23 753 l 5 121 z m 563 590 l 747 480 l 704 255 l 433 272 l 418 432 z "},"r":{"ha":1350,"x_min":0,"x_max":0,"o":"m 515 782 l 733 607 l 542 422 z m 587 -237 l 579 27 l 874 -278 l 1278 42 l 977 262 l 1098 371 l 1065 907 l 814 1111 l 0 1101 l 111 -241 z "},"s":{"ha":1304,"x_min":0,"x_max":0,"o":"m 462 -278 l 995 -67 l 1168 363 l 582 628 l 704 734 l 934 582 l 1237 858 l 951 1111 l 445 1109 l 0 645 l 424 253 l 23 72 z "},"t":{"ha":1261,"x_min":0,"x_max":0,"o":"m 0 1106 l 1006 1128 l 1150 989 l 1139 722 l 722 744 l 850 -244 l 372 -278 l 400 767 l 0 822 z "},"u":{"ha":1164,"x_min":0,"x_max":0,"o":"m 261 -278 l 845 -146 l 1035 149 l 949 943 l 572 861 l 600 376 l 503 315 l 483 1111 l 0 1109 l 11 76 z "},"v":{"ha":1164,"x_min":0,"x_max":0,"o":"m 503 315 l 675 862 l 1028 939 l 717 -261 l 308 -261 l 0 1109 l 379 1110 z "},"w":{"ha":1597,"x_min":0,"x_max":0,"o":"m 808 564 l 950 297 l 1142 1064 l 1525 989 l 1283 -78 l 892 -253 l 782 -36 l 738 -247 l 296 -235 l 0 956 l 458 1106 l 500 431 l 575 297 z "},"x":{"ha":1464,"x_min":0,"x_max":0,"o":"m 1374 769 l 1019 361 l 1331 29 l 984 -313 l 690 143 l 414 -286 l 1 -2 l 383 371 l 29 852 l 514 1089 l 715 709 l 1071 1059 z "},"y":{"ha":1419,"x_min":0,"x_max":0,"o":"m 354 -296 l 896 -279 l 883 329 l 1374 769 l 1071 1059 l 715 709 l 514 1089 l 29 852 l 508 283 l 421 -142 z "},"z":{"ha":1029,"x_min":0,"x_max":0,"o":"m 943 633 l 911 1076 l 12 1112 l 0 633 l 474 650 l 0 208 l 106 -224 l 874 -249 l 949 131 l 485 117 z "},"{":{"ha":994,"x_min":0,"x_max":0,"o":"m 957 1207 l 318 1163 l 318 469 l 9 294 l 326 133 l 363 -560 l 929 -560 l 929 -199 l 713 -165 l 683 142 l 487 308 l 671 514 l 679 835 l 946 840 z "},"|":{"ha":336,"x_min":0,"x_max":0,"o":"m 22 1367 l 1 -522 l 265 -519 l 301 1361 z "},"}":{"ha":875,"x_min":0,"x_max":0,"o":"m 50 1178 l 600 1194 l 564 513 l 808 354 l 546 165 l 508 -564 l 0 -531 l 0 -214 l 233 -181 l 248 179 l 450 357 l 263 546 l 275 836 l 0 869 z "},"~":{"ha":1211,"x_min":0,"x_max":0,"o":"m 0 358 l 226 644 l 432 667 l 721 428 l 1001 589 l 1154 408 l 788 214 l 404 358 l 207 225 z "},"¡":{"ha":489,"x_min":0,"x_max":0,"o":"m 0 619 l 0 -456 l 440 -411 l 382 628 z m 0 1106 l 0 747 l 368 736 l 318 1086 z "},"¢":{"ha":1111,"x_min":0,"x_max":0,"o":"m 1071 628 l 760 821 l 768 1053 l 546 1058 l 513 832 l 315 783 l 0 367 l 0 72 l 196 -214 l 529 -212 l 521 -444 l 801 -464 l 790 -194 l 1065 -175 l 1026 117 l 465 128 l 415 369 l 629 558 l 910 381 z "},"£":{"ha":1272,"x_min":0,"x_max":0,"o":"m 1160 814 l 1021 650 l 846 722 l 576 683 l 579 522 l 843 489 l 765 214 l 565 261 l 535 94 l 910 128 l 1235 47 l 1185 -225 l 915 -197 l 404 -239 l 79 -156 l 126 69 l 232 69 l 251 294 l 1 328 l 46 589 l 296 558 l 272 747 l 476 1017 l 929 1036 z "},"¤":{"ha":992,"x_min":0,"x_max":0,"o":"m 476 458 l 551 378 l 463 297 l 382 394 z m 7 597 l 171 486 l 124 369 l 168 228 l 61 133 l 235 0 l 379 97 l 460 47 l 613 100 l 676 0 l 890 119 l 754 278 l 793 403 l 771 497 l 907 628 l 757 786 l 615 708 l 504 758 l 329 686 l 132 778 z "},"¥":{"ha":1419,"x_min":0,"x_max":0,"o":"m 354 -296 l 896 -279 l 886 -131 l 1068 -139 l 1090 28 l 886 56 l 876 92 l 1087 75 l 1085 228 l 885 258 l 883 329 l 1374 769 l 1071 1059 l 715 709 l 514 1089 l 29 852 l 508 283 l 493 222 l 249 239 l 230 78 l 479 47 l 476 8 l 243 19 l 210 -142 l 415 -189 z "},"¦":{"ha":336,"x_min":0,"x_max":0,"o":"m 5 375 l 275 356 l 260 -525 l -4 -528 z m 5 497 l 278 494 l 296 1356 l 17 1361 z "},"¨":{"ha":739,"x_min":0,"x_max":0,"o":"m 390 1081 l 671 1061 l 693 942 l 376 925 z m 0 1067 l 313 1094 l 313 942 l 0 942 z "},"¯":{"ha":672,"x_min":0,"x_max":0,"o":"m 15 1122 l 35 1300 l 618 1331 l 638 1136 z "},"°":{"ha":444,"x_min":0,"x_max":0,"o":"m 93 1000 l 107 842 l 268 850 l 251 1006 z m 0 1097 l 385 1106 l 401 758 l 0 758 z "},"·":{"ha":406,"x_min":0,"x_max":0,"o":"m 0 639 l 0 303 l 332 319 l 313 614 z "},"¸":{"ha":550,"x_min":0,"x_max":0,"o":"m 0 -192 l 371 -392 l 532 -319 l 288 0 z "}}}
